<svg width="17" height="15" viewBox="0 0 17 15" fill="none" xmlns="http://www.w3.org/2000/svg">
<path d="M9.35278 0.527344C9.19636 0.205078 8.8658 0 8.50278 0C8.13976 0 7.81216 0.205078 7.65278 0.527344L5.75504 4.40332L1.51685 5.02441C1.16268 5.07715 0.86754 5.32324 0.758339 5.66016C0.649138 5.99707 0.737679 6.36914 0.991499 6.61816L4.06685 9.63867L3.3408 13.9072C3.28178 14.2588 3.42935 14.6162 3.72153 14.8242C4.01372 15.0322 4.40035 15.0586 4.7191 14.8916L8.50574 12.8848L12.2924 14.8916C12.6111 15.0586 12.9977 15.0352 13.2899 14.8242C13.5821 14.6133 13.7297 14.2588 13.6707 13.9072L12.9417 9.63867L16.017 6.61816C16.2708 6.36914 16.3623 5.99707 16.2502 5.66016C16.138 5.32324 15.8458 5.07715 15.4917 5.02441L11.2505 4.40332L9.35278 0.527344Z" fill="#5746AF"/>
</svg>
