<svg width="13" height="15" viewBox="0 0 13 15" fill="none" xmlns="http://www.w3.org/2000/svg">
<path d="M6.5 7.5C7.48509 7.5 8.42983 7.10491 9.1264 6.40165C9.82296 5.69839 10.2143 4.74456 10.2143 3.75C10.2143 2.75544 9.82296 1.80161 9.1264 1.09835C8.42983 0.395088 7.48509 0 6.5 0C5.51491 0 4.57017 0.395088 3.8736 1.09835C3.17704 1.80161 2.78571 2.75544 2.78571 3.75C2.78571 4.74456 3.17704 5.69839 3.8736 6.40165C4.57017 7.10491 5.51491 7.5 6.5 7.5ZM5.17388 8.90625C2.31562 8.90625 0 11.2441 0 14.1299C0 14.6104 0.385938 15 0.86183 15H12.1382C12.6141 15 13 14.6104 13 14.1299C13 11.2441 10.6844 8.90625 7.82612 8.90625H5.17388Z" fill="#5746AF"/>
</svg>
