<svg width="18" height="19" viewBox="0 0 18 19" fill="none" xmlns="http://www.w3.org/2000/svg">
<path d="M14.623 7.71875C14.623 9.42207 14.0992 10.9955 13.2168 12.2721L17.6676 16.9738C18.107 17.4377 18.107 18.191 17.6676 18.6549C17.2281 19.1188 16.5145 19.1188 16.075 18.6549L11.6242 13.9531C10.4148 14.8883 8.92422 15.4375 7.31055 15.4375C3.27109 15.4375 -0.00195312 11.9826 -0.00195312 7.71875C-0.00195312 3.45488 3.27109 0 7.31055 0C11.35 0 14.623 3.45488 14.623 7.71875ZM7.31055 13.0625C7.97536 13.0625 8.63367 12.9243 9.24788 12.6557C9.86209 12.3872 10.4202 11.9936 10.8903 11.4974C11.3604 11.0011 11.7333 10.412 11.9877 9.76372C12.2421 9.11538 12.373 8.4205 12.373 7.71875C12.373 7.017 12.2421 6.32212 11.9877 5.67379C11.7333 5.02545 11.3604 4.43636 10.8903 3.94015C10.4202 3.44394 9.86209 3.05032 9.24788 2.78177C8.63367 2.51322 7.97536 2.375 7.31055 2.375C6.64573 2.375 5.98742 2.51322 5.37321 2.78177C4.759 3.05032 4.20092 3.44394 3.73082 3.94015C3.26072 4.43636 2.88782 5.02545 2.63341 5.67379C2.37899 6.32212 2.24805 7.017 2.24805 7.71875C2.24805 8.4205 2.37899 9.11538 2.63341 9.76372C2.88782 10.412 3.26072 11.0011 3.73082 11.4974C4.20092 11.9936 4.759 12.3872 5.37321 12.6557C5.98742 12.9243 6.64573 13.0625 7.31055 13.0625Z" fill="#757575"/>
</svg>
