<svg width="80" height="60" viewBox="0 0 80 60" fill="none" xmlns="http://www.w3.org/2000/svg">
<g clip-path="url(#clip0_329_19857)">
<path d="M6.05395 59.8454L5.39763 57.5502H2.31974L1.66342 59.8454H0L2.56869 51.3545H5.18263L7.76263 59.8454H6.05395ZM3.59842 53.0551L2.74974 56.0043H4.945L4.09632 53.0551H3.59842ZM14.9671 53.6854H13.2471C13.1114 53.0432 12.621 52.7221 11.7761 52.7221C11.3914 52.7221 11.0745 52.8054 10.8256 52.9718C10.5766 53.1303 10.4521 53.3682 10.4521 53.6854C10.4521 54.1372 10.7879 54.4266 11.4593 54.5535L12.9642 54.8389C14.4278 55.1243 15.1595 55.9528 15.1595 57.3243C15.1595 58.0854 14.8804 58.7236 14.3221 59.2389C13.7639 59.7463 12.9605 60 11.9119 60C10.901 60 10.0938 59.7541 9.4903 59.2627C8.8868 58.7712 8.54356 58.1012 8.46057 57.2529H10.1806C10.3088 58.0696 10.9086 58.4778 11.9798 58.4778C12.4324 58.4778 12.7907 58.3827 13.0548 58.1924C13.3264 58.0021 13.4621 57.7405 13.4621 57.4075C13.4621 57.0903 13.3678 56.8525 13.1792 56.694C12.9982 56.5355 12.7266 56.4205 12.3645 56.3491L10.8256 56.0637C9.44504 55.8101 8.75478 55.0371 8.75478 53.7448C8.75478 53.0155 9.02636 52.409 9.56951 51.9254C10.1127 51.4417 10.8557 51.2 11.7987 51.2C12.6814 51.2 13.4056 51.422 13.9714 51.8659C14.5447 52.3098 14.8766 52.9163 14.9671 53.6854ZM22.7798 53.6854H21.0598C20.924 53.0432 20.4337 52.7221 19.5888 52.7221C19.204 52.7221 18.8872 52.8054 18.6383 52.9718C18.3893 53.1303 18.2648 53.3682 18.2648 53.6854C18.2648 54.1372 18.6006 54.4266 19.2719 54.5535L20.7769 54.8389C22.2405 55.1243 22.9722 55.9528 22.9722 57.3243C22.9722 58.0854 22.6932 58.7236 22.1348 59.2389C21.5766 59.7463 20.7732 60 19.7246 60C18.7137 60 17.9066 59.7541 17.303 59.2627C16.6995 58.7712 16.3563 58.1012 16.2733 57.2529H17.9933C18.1216 58.0696 18.7213 58.4778 19.7925 58.4778C20.2451 58.4778 20.6035 58.3827 20.8675 58.1924C21.139 58.0021 21.2748 57.7405 21.2748 57.4075C21.2748 57.0903 21.1806 56.8525 20.9919 56.694C20.8109 56.5355 20.5393 56.4205 20.1772 56.3491L18.6383 56.0637C17.2577 55.8101 16.5675 55.0371 16.5675 53.7448C16.5675 53.0155 16.839 52.409 17.3822 51.9254C17.9254 51.4417 18.6685 51.2 19.6114 51.2C20.494 51.2 21.2182 51.422 21.784 51.8659C22.3574 52.3098 22.6893 52.9163 22.7798 53.6854ZM26.2135 58.2637H30.6267V59.8454H24.5275V51.3545H30.5022V52.9362H26.2135V54.72H29.5517V56.2659H26.2135V58.2637ZM38.016 51.3545V52.9124H35.5039V59.8454H33.8179V52.9124H31.3058V51.3545H38.016ZM39.1363 59.8454V51.3545H41.7276L43.0516 54.7794H43.3458L44.6584 51.3545H47.261V59.8454H45.6881V53.5189H45.3939L44.036 56.9437H42.35L41.0034 53.5189H40.7092V59.8454H39.1363ZM54.4443 59.8454L53.788 57.5502H50.7101L50.0538 59.8454H48.3903L50.959 51.3545H53.573L56.153 59.8454H54.4443ZM51.9888 53.0551L51.1401 56.0043H53.3353L52.4866 53.0551H51.9888ZM57.2923 59.8454V51.3545H58.9784V54.8627L62.2826 51.3545H64.2515L61.8299 54.0183L64.6362 59.8454H62.7804L60.7323 55.5762H60.4381L58.9784 57.1102V59.8454H57.2923ZM67.4983 58.2637H71.9115V59.8454H65.8123V51.3545H71.787V52.9362H67.4983V54.72H70.8365V56.2659H67.4983V58.2637ZM73.3487 51.3545H77.1508C78.0487 51.3545 78.7464 51.5885 79.2443 52.0562C79.7421 52.516 79.9911 53.1621 79.9911 53.9945C79.9911 55.0648 79.5913 55.822 78.7916 56.2659L80.0024 59.8454H78.305L77.2187 56.6464H75.0348V59.8454H73.3487V51.3545ZM75.0348 52.9124V55.1362H76.9132C77.3961 55.1362 77.7431 55.0449 77.9543 54.8627C78.1655 54.6724 78.2711 54.3909 78.2711 54.0183C78.2711 53.622 78.1542 53.3405 77.9203 53.174C77.694 52.9995 77.3018 52.9124 76.7435 52.9124H75.0348Z" fill="#333333"/>
<path d="M25.1723 0L0 43.2H8.85022L29.597 7.59315L25.1723 0Z" fill="url(#paint0_linear_329_19857)"/>
<path d="M54.8288 25.4479L48.9085 35.6061H28.1017L44.4239 7.59315L39.9992 0L14.8291 43.2H53.3339L59.2535 33.041L54.8288 25.4479Z" fill="url(#paint1_linear_329_19857)"/>
<path d="M71.1519 43.2H79.9998L54.8291 0L37.0703 30.476H45.9191L54.8298 15.1871L71.1519 43.2Z" fill="url(#paint2_linear_329_19857)"/>
</g>
<defs>
<linearGradient id="paint0_linear_329_19857" x1="80" y1="-1.449e-06" x2="9.61279" y2="55.411" gradientUnits="userSpaceOnUse">
<stop stop-color="#50C0FF"/>
<stop offset="0.348949" stop-color="#73DDFF"/>
<stop offset="0.650352" stop-color="#92A3FF"/>
<stop offset="1" stop-color="#C184FF"/>
</linearGradient>
<linearGradient id="paint1_linear_329_19857" x1="79.9996" y1="-2.53296e-06" x2="9.61234" y2="55.411" gradientUnits="userSpaceOnUse">
<stop stop-color="#50C0FF"/>
<stop offset="0.348949" stop-color="#73DDFF"/>
<stop offset="0.650352" stop-color="#92A3FF"/>
<stop offset="1" stop-color="#C184FF"/>
</linearGradient>
<linearGradient id="paint2_linear_329_19857" x1="79.9998" y1="-5.83016e-06" x2="9.61262" y2="55.411" gradientUnits="userSpaceOnUse">
<stop stop-color="#50C0FF"/>
<stop offset="0.348949" stop-color="#73DDFF"/>
<stop offset="0.650352" stop-color="#92A3FF"/>
<stop offset="1" stop-color="#C184FF"/>
</linearGradient>
<clipPath id="clip0_329_19857">
<rect width="80" height="60" fill="white"/>
</clipPath>
</defs>
</svg>
