<svg width="17" height="13" viewBox="0 0 17 13" fill="none" xmlns="http://www.w3.org/2000/svg">
<path d="M8.59031 1.49609L6.01906 3.79297C5.59141 4.17383 5.50906 4.85938 5.83313 5.34863C6.17578 5.87012 6.8425 5.97266 7.30203 5.57715L9.93969 3.31543C10.1256 3.15723 10.3913 3.19238 10.5373 3.39746C10.6834 3.60254 10.6489 3.89551 10.463 4.05664L9.90781 4.53125L13.6 8.28125V2.75H13.5814L13.4778 2.67676L11.5494 1.31445C11.143 1.02734 10.6675 0.875 10.1841 0.875C9.605 0.875 9.04187 1.09473 8.59031 1.49609ZM9.19594 5.14063L7.82266 6.31836C6.98594 7.03906 5.77203 6.85156 5.14516 5.90234C4.55547 5.00879 4.70422 3.76074 5.4825 3.06641L7.6925 1.09473C7.38438 0.951172 7.05234 0.87793 6.715 0.87793C6.21563 0.875 5.72953 1.03906 5.3125 1.34375L3.4 2.75V9.3125H4.14906L6.57688 11.7559C7.0975 12.2803 7.90234 12.2393 8.37781 11.665C8.52391 11.4863 8.62219 11.2783 8.67266 11.0615L9.12422 11.5186C9.64219 12.043 10.4497 12.0049 10.9252 11.4336C11.0447 11.29 11.1323 11.123 11.1881 10.9502C11.7034 11.3311 12.4047 11.252 12.8377 10.7305C13.3131 10.1592 13.2786 9.26856 12.7606 8.74414L9.19594 5.14063ZM0.425 2.75C0.19125 2.75 0 2.96094 0 3.21875V9.3125C0 9.83106 0.379844 10.25 0.85 10.25H1.7C2.17016 10.25 2.55 9.83106 2.55 9.3125V2.75H0.425ZM1.275 8.375C1.38772 8.375 1.49582 8.42439 1.57552 8.51229C1.65522 8.6002 1.7 8.71943 1.7 8.84375C1.7 8.96807 1.65522 9.0873 1.57552 9.17521C1.49582 9.26311 1.38772 9.3125 1.275 9.3125C1.16228 9.3125 1.05418 9.26311 0.97448 9.17521C0.894777 9.0873 0.85 8.96807 0.85 8.84375C0.85 8.71943 0.894777 8.6002 0.97448 8.51229C1.05418 8.42439 1.16228 8.375 1.275 8.375ZM14.45 2.75V9.3125C14.45 9.83106 14.8298 10.25 15.3 10.25H16.15C16.6202 10.25 17 9.83106 17 9.3125V3.21875C17 2.96094 16.8088 2.75 16.575 2.75H14.45ZM15.3 8.84375C15.3 8.71943 15.3448 8.6002 15.4245 8.51229C15.5042 8.42439 15.6123 8.375 15.725 8.375C15.8377 8.375 15.9458 8.42439 16.0255 8.51229C16.1052 8.6002 16.15 8.71943 16.15 8.84375C16.15 8.96807 16.1052 9.0873 16.0255 9.17521C15.9458 9.26311 15.8377 9.3125 15.725 9.3125C15.6123 9.3125 15.5042 9.26311 15.4245 9.17521C15.3448 9.0873 15.3 8.96807 15.3 8.84375Z" fill="#5746AF"/>
</svg>
