<svg width="30" height="61" viewBox="0 0 30 61" fill="none" xmlns="http://www.w3.org/2000/svg">
<mask id="path-1-inside-1_329_19614" fill="white">
<path d="M0 0.5C16.5685 0.5 30 13.9315 30 30.5C30 47.0685 16.5685 60.5 0 60.5V0.5Z"/>
</mask>
<path d="M0 0.5C16.5685 0.5 30 13.9315 30 30.5C30 47.0685 16.5685 60.5 0 60.5V0.5Z" fill="white"/>
<path d="M0 0.5H30H0ZM30 60.5H0H30ZM0 60.5V0.5V60.5ZM1 0.5C17.5685 0.5 31 13.9315 31 30.5C31 47.0685 17.5685 60.5 1 60.5H0C16.0163 60.5 29 47.0685 29 30.5C29 13.9315 16.0163 0.5 0 0.5H1Z" fill="#D3D2D2" mask="url(#path-1-inside-1_329_19614)"/>
<path d="M6.69995 29.7937C6.30933 30.1843 6.30933 30.8187 6.69995 31.2093L12.7 37.2093C13.0906 37.5999 13.725 37.5999 14.1156 37.2093C14.5062 36.8187 14.5062 36.1843 14.1156 35.7937L8.82183 30.4999L14.1125 25.2062C14.5031 24.8155 14.5031 24.1812 14.1125 23.7905C13.7218 23.3999 13.0875 23.3999 12.6968 23.7905L6.69683 29.7905L6.69995 29.7937Z" fill="#252525"/>
</svg>
