<svg width="30" height="61" viewBox="0 0 30 61" fill="none" xmlns="http://www.w3.org/2000/svg">
<mask id="path-1-inside-1_329_19675" fill="white">
<path d="M0 30.7002C0 14.1317 13.4315 0.700195 30 0.700195V60.7002C13.4315 60.7002 0 47.2687 0 30.7002Z"/>
</mask>
<path d="M0 30.7002C0 14.1317 13.4315 0.700195 30 0.700195V60.7002C13.4315 60.7002 0 47.2687 0 30.7002Z" fill="white"/>
<path d="M0 0.700195H30H0ZM30 60.7002H0H30ZM29 60.7002C12.4315 60.7002 -1 47.2687 -1 30.7002C-1 14.1317 12.4315 0.700195 29 0.700195H30C13.9837 0.700195 1 14.1317 1 30.7002C1 47.2687 13.9837 60.7002 30 60.7002H29ZM30 0.700195V60.7002V0.700195Z" fill="#D3D2D2" mask="url(#path-1-inside-1_329_19675)"/>
<path d="M23.2999 29.9938C23.6905 30.3845 23.6905 31.0188 23.2999 31.4095L17.2999 37.4095C16.9093 37.8001 16.2749 37.8001 15.8843 37.4095C15.4937 37.0188 15.4937 36.3845 15.8843 35.9938L21.178 30.7001L15.8874 25.4063C15.4968 25.0157 15.4968 24.3813 15.8874 23.9907C16.278 23.6001 16.9124 23.6001 17.303 23.9907L23.303 29.9907L23.2999 29.9938Z" fill="#252525"/>
</svg>
