<svg width="14" height="4" viewBox="0 0 14 4" fill="none" xmlns="http://www.w3.org/2000/svg">
<path d="M0.25 2C0.25 1.53587 0.434374 1.09075 0.762563 0.762563C1.09075 0.434375 1.53587 0.25 2 0.25C2.46413 0.25 2.90925 0.434375 3.23744 0.762563C3.56563 1.09075 3.75 1.53587 3.75 2C3.75 2.46413 3.56563 2.90925 3.23744 3.23744C2.90925 3.56563 2.46413 3.75 2 3.75C1.53587 3.75 1.09075 3.56563 0.762563 3.23744C0.434374 2.90925 0.25 2.46413 0.25 2ZM5.25 2C5.25 1.53587 5.43437 1.09075 5.76256 0.762563C6.09075 0.434375 6.53587 0.25 7 0.25C7.46413 0.25 7.90925 0.434375 8.23744 0.762563C8.56563 1.09075 8.75 1.53587 8.75 2C8.75 2.46413 8.56563 2.90925 8.23744 3.23744C7.90925 3.56563 7.46413 3.75 7 3.75C6.53587 3.75 6.09075 3.56563 5.76256 3.23744C5.43437 2.90925 5.25 2.46413 5.25 2ZM12 0.25C12.4641 0.25 12.9092 0.434375 13.2374 0.762563C13.5656 1.09075 13.75 1.53587 13.75 2C13.75 2.46413 13.5656 2.90925 13.2374 3.23744C12.9092 3.56563 12.4641 3.75 12 3.75C11.5359 3.75 11.0908 3.56563 10.7626 3.23744C10.4344 2.90925 10.25 2.46413 10.25 2C10.25 1.53587 10.4344 1.09075 10.7626 0.762563C11.0908 0.434375 11.5359 0.25 12 0.25Z" fill="#252525"/>
</svg>
