<svg width="15" height="15" viewBox="0 0 15 15" fill="none" xmlns="http://www.w3.org/2000/svg">
<path d="M11.4512 6.1936C11.4512 7.44868 11.0437 8.60806 10.3574 9.54868L13.8191 13.0131C14.1609 13.3549 14.1609 13.91 13.8191 14.2518C13.4773 14.5936 12.9223 14.5936 12.5805 14.2518L9.11875 10.7874C8.17813 11.4764 7.01875 11.8811 5.76367 11.8811C2.62188 11.8811 0.0761719 9.3354 0.0761719 6.1936C0.0761719 3.05181 2.62188 0.506104 5.76367 0.506104C8.90547 0.506104 11.4512 3.05181 11.4512 6.1936ZM5.76367 10.1311C6.28075 10.1311 6.79277 10.0293 7.27049 9.83138C7.74821 9.6335 8.18227 9.34347 8.5479 8.97784C8.91354 8.61221 9.20357 8.17814 9.40145 7.70042C9.59933 7.2227 9.70117 6.71068 9.70117 6.1936C9.70117 5.67652 9.59933 5.16451 9.40145 4.68679C9.20357 4.20907 8.91354 3.775 8.5479 3.40937C8.18227 3.04374 7.74821 2.75371 7.27049 2.55583C6.79277 2.35795 6.28075 2.2561 5.76367 2.2561C5.24659 2.2561 4.73458 2.35795 4.25686 2.55583C3.77914 2.75371 3.34507 3.04374 2.97944 3.40937C2.61381 3.775 2.32377 4.20907 2.1259 4.68679C1.92802 5.16451 1.82617 5.67652 1.82617 6.1936C1.82617 6.71068 1.92802 7.2227 2.1259 7.70042C2.32377 8.17814 2.61381 8.61221 2.97944 8.97784C3.34507 9.34347 3.77914 9.6335 4.25686 9.83138C4.73458 10.0293 5.24659 10.1311 5.76367 10.1311Z" fill="white"/>
</svg>
