<svg width="20" height="23" viewBox="0 0 20 23" fill="none" xmlns="http://www.w3.org/2000/svg">
<g clip-path="url(#clip0_329_19842)">
<path d="M10.0045 6.29015C7.1673 6.29015 4.87884 8.57861 4.87884 11.4158C4.87884 14.2529 7.1673 16.5414 10.0045 16.5414C12.8416 16.5414 15.1301 14.2529 15.1301 11.4158C15.1301 8.57861 12.8416 6.29015 10.0045 6.29015ZM10.0045 14.7481C8.17101 14.7481 6.67214 13.2537 6.67214 11.4158C6.67214 9.57786 8.16655 8.08345 10.0045 8.08345C11.8424 8.08345 13.3368 9.57786 13.3368 11.4158C13.3368 13.2537 11.8379 14.7481 10.0045 14.7481ZM16.5353 6.08049C16.5353 6.74517 16 7.27602 15.3397 7.27602C14.6751 7.27602 14.1442 6.74071 14.1442 6.08049C14.1442 5.42027 14.6795 4.88495 15.3397 4.88495C16 4.88495 16.5353 5.42027 16.5353 6.08049ZM19.93 7.29386C19.8542 5.69238 19.4884 4.27381 18.3152 3.10504C17.1464 1.93628 15.7278 1.57048 14.1264 1.49018C12.4758 1.3965 7.52864 1.3965 5.87809 1.49018C4.28107 1.56602 2.8625 1.93181 1.68927 3.10058C0.516043 4.26935 0.154707 5.68792 0.0744102 7.2894C-0.0192695 8.93995 -0.0192695 13.8871 0.0744102 15.5377C0.150246 17.1391 0.516043 18.5577 1.68927 19.7265C2.8625 20.8953 4.27661 21.2611 5.87809 21.3414C7.52864 21.435 12.4758 21.435 14.1264 21.3414C15.7278 21.2655 17.1464 20.8997 18.3152 19.7265C19.4839 18.5577 19.8497 17.1391 19.93 15.5377C20.0237 13.8871 20.0237 8.94441 19.93 7.29386ZM17.7977 17.3087C17.4498 18.183 16.7762 18.8566 15.8974 19.209C14.5814 19.731 11.4587 19.6105 10.0045 19.6105C8.55019 19.6105 5.42307 19.7265 4.11156 19.209C3.23721 18.8611 2.56361 18.1875 2.2112 17.3087C1.68927 15.9927 1.80971 12.87 1.80971 11.4158C1.80971 9.9615 1.69373 6.83438 2.2112 5.52287C2.55915 4.64853 3.23275 3.97492 4.11156 3.62251C5.42754 3.10058 8.55019 3.22103 10.0045 3.22103C11.4587 3.22103 14.5858 3.10504 15.8974 3.62251C16.7717 3.97046 17.4453 4.64406 17.7977 5.52287C18.3196 6.83885 18.1992 9.9615 18.1992 11.4158C18.1992 12.87 18.3196 15.9972 17.7977 17.3087Z" fill="white"/>
</g>
<defs>
<clipPath id="clip0_329_19842">
<rect width="19.985" height="22.84" fill="white" transform="translate(0.00756836)"/>
</clipPath>
</defs>
</svg>
