<svg width="80" height="60" viewBox="0 0 80 60" fill="none" xmlns="http://www.w3.org/2000/svg">
<g clip-path="url(#clip0_329_19849)">
<path d="M6.05395 59.8456L5.39763 57.5505H2.31974L1.66342 59.8456H0L2.56869 51.3548H5.18263L7.76263 59.8456H6.05395ZM3.59842 53.0553L2.74974 56.0045H4.945L4.09632 53.0553H3.59842ZM14.9671 53.6856H13.2471C13.1114 53.0434 12.621 52.7224 11.7761 52.7224C11.3914 52.7224 11.0745 52.8056 10.8256 52.9721C10.5766 53.1306 10.4521 53.3684 10.4521 53.6856C10.4521 54.1375 10.7879 54.4268 11.4593 54.5537L12.9642 54.8391C14.4278 55.1245 15.1595 55.953 15.1595 57.3245C15.1595 58.0856 14.8804 58.7239 14.3221 59.2391C13.7639 59.7466 12.9605 60.0002 11.9119 60.0002C10.901 60.0002 10.0938 59.7544 9.4903 59.2629C8.8868 58.7714 8.54356 58.1014 8.46057 57.2532H10.1806C10.3088 58.0698 10.9086 58.478 11.9798 58.478C12.4324 58.478 12.7907 58.3829 13.0548 58.1926C13.3264 58.0024 13.4621 57.7407 13.4621 57.4078C13.4621 57.0906 13.3678 56.8528 13.1792 56.6943C12.9982 56.5358 12.7266 56.4207 12.3645 56.3494L10.8256 56.064C9.44504 55.8103 8.75478 55.0374 8.75478 53.7451C8.75478 53.0157 9.02636 52.4093 9.56951 51.9256C10.1127 51.4419 10.8557 51.2002 11.7987 51.2002C12.6814 51.2002 13.4056 51.4222 13.9714 51.8661C14.5447 52.3101 14.8766 52.9165 14.9671 53.6856ZM22.7798 53.6856H21.0598C20.924 53.0434 20.4337 52.7224 19.5888 52.7224C19.204 52.7224 18.8872 52.8056 18.6383 52.9721C18.3893 53.1306 18.2648 53.3684 18.2648 53.6856C18.2648 54.1375 18.6006 54.4268 19.2719 54.5537L20.7769 54.8391C22.2405 55.1245 22.9722 55.953 22.9722 57.3245C22.9722 58.0856 22.6932 58.7239 22.1348 59.2391C21.5766 59.7466 20.7732 60.0002 19.7246 60.0002C18.7137 60.0002 17.9066 59.7544 17.303 59.2629C16.6995 58.7714 16.3563 58.1014 16.2733 57.2532H17.9933C18.1216 58.0698 18.7213 58.478 19.7925 58.478C20.2451 58.478 20.6035 58.3829 20.8675 58.1926C21.139 58.0024 21.2748 57.7407 21.2748 57.4078C21.2748 57.0906 21.1806 56.8528 20.9919 56.6943C20.8109 56.5358 20.5393 56.4207 20.1772 56.3494L18.6383 56.064C17.2577 55.8103 16.5675 55.0374 16.5675 53.7451C16.5675 53.0157 16.839 52.4093 17.3822 51.9256C17.9254 51.4419 18.6685 51.2002 19.6114 51.2002C20.494 51.2002 21.2182 51.4222 21.784 51.8661C22.3574 52.3101 22.6893 52.9165 22.7798 53.6856ZM26.2135 58.264H30.6267V59.8456H24.5275V51.3548H30.5022V52.9364H26.2135V54.7202H29.5517V56.2661H26.2135V58.264ZM38.016 51.3548V52.9126H35.5039V59.8456H33.8179V52.9126H31.3058V51.3548H38.016ZM39.1363 59.8456V51.3548H41.7276L43.0516 54.7797H43.3458L44.6584 51.3548H47.261V59.8456H45.6881V53.5191H45.3939L44.036 56.944H42.35L41.0034 53.5191H40.7092V59.8456H39.1363ZM54.4443 59.8456L53.788 57.5505H50.7101L50.0538 59.8456H48.3903L50.959 51.3548H53.573L56.153 59.8456H54.4443ZM51.9888 53.0553L51.1401 56.0045H53.3353L52.4866 53.0553H51.9888ZM57.2923 59.8456V51.3548H58.9784V54.8629L62.2826 51.3548H64.2515L61.8299 54.0186L64.6362 59.8456H62.7804L60.7323 55.5764H60.4381L58.9784 57.1105V59.8456H57.2923ZM67.4983 58.264H71.9115V59.8456H65.8123V51.3548H71.787V52.9364H67.4983V54.7202H70.8365V56.2661H67.4983V58.264ZM73.3487 51.3548H77.1508C78.0487 51.3548 78.7464 51.5887 79.2443 52.0564C79.7421 52.5163 79.9911 53.1624 79.9911 53.9948C79.9911 55.0651 79.5913 55.8222 78.7916 56.2661L80.0024 59.8456H78.305L77.2187 56.6467H75.0348V59.8456H73.3487V51.3548ZM75.0348 52.9126V55.1364H76.9132C77.3961 55.1364 77.7431 55.0452 77.9543 54.8629C78.1655 54.6726 78.2711 54.3911 78.2711 54.0186C78.2711 53.6222 78.1542 53.3407 77.9203 53.1743C77.694 52.9998 77.3018 52.9126 76.7435 52.9126H75.0348Z" fill="#FEFEFE"/>
<path d="M25.1723 0L0 43.2H8.85022L29.597 7.59315L25.1723 0Z" fill="url(#paint0_linear_329_19849)"/>
<path d="M54.8288 25.4479L48.9085 35.6061H28.1017L44.4239 7.59315L39.9992 0L14.8291 43.2H53.3339L59.2535 33.041L54.8288 25.4479Z" fill="url(#paint1_linear_329_19849)"/>
<path d="M71.1519 43.2H79.9998L54.8291 0L37.0703 30.476H45.9191L54.8298 15.1871L71.1519 43.2Z" fill="url(#paint2_linear_329_19849)"/>
</g>
<defs>
<linearGradient id="paint0_linear_329_19849" x1="80" y1="-1.449e-06" x2="9.61279" y2="55.411" gradientUnits="userSpaceOnUse">
<stop stop-color="#50C0FF"/>
<stop offset="0.348949" stop-color="#73DDFF"/>
<stop offset="0.650352" stop-color="#92A3FF"/>
<stop offset="1" stop-color="#C184FF"/>
</linearGradient>
<linearGradient id="paint1_linear_329_19849" x1="79.9996" y1="-2.53296e-06" x2="9.61234" y2="55.411" gradientUnits="userSpaceOnUse">
<stop stop-color="#50C0FF"/>
<stop offset="0.348949" stop-color="#73DDFF"/>
<stop offset="0.650352" stop-color="#92A3FF"/>
<stop offset="1" stop-color="#C184FF"/>
</linearGradient>
<linearGradient id="paint2_linear_329_19849" x1="79.9998" y1="-5.83016e-06" x2="9.61262" y2="55.411" gradientUnits="userSpaceOnUse">
<stop stop-color="#50C0FF"/>
<stop offset="0.348949" stop-color="#73DDFF"/>
<stop offset="0.650352" stop-color="#92A3FF"/>
<stop offset="1" stop-color="#C184FF"/>
</linearGradient>
<clipPath id="clip0_329_19849">
<rect width="80" height="60" fill="white"/>
</clipPath>
</defs>
</svg>
