<svg width="20" height="19" viewBox="0 0 20 19" fill="none" xmlns="http://www.w3.org/2000/svg">
<g clip-path="url(#clip0_329_19846)">
<path d="M19.0813 4.83726C18.8633 4.01643 18.221 3.36998 17.4055 3.1506C15.9274 2.75195 10 2.75195 10 2.75195C10 2.75195 4.07278 2.75195 2.59458 3.1506C1.77906 3.37002 1.13678 4.01643 0.918782 4.83726C0.522705 6.32504 0.522705 9.42917 0.522705 9.42917C0.522705 9.42917 0.522705 12.5333 0.918782 14.0211C1.13678 14.8419 1.77906 15.4614 2.59458 15.6808C4.07278 16.0795 10 16.0795 10 16.0795C10 16.0795 15.9273 16.0795 17.4055 15.6808C18.221 15.4614 18.8633 14.8419 19.0813 14.0211C19.4774 12.5333 19.4774 9.42917 19.4774 9.42917C19.4774 9.42917 19.4774 6.32504 19.0813 4.83726ZM8.06149 12.2475V6.61085L13.0155 9.42924L8.06149 12.2475Z" fill="white"/>
</g>
<defs>
<clipPath id="clip0_329_19846">
<rect width="19.9912" height="17.77" fill="white" transform="translate(0.00439453 0.530273)"/>
</clipPath>
</defs>
</svg>
